<?xml version="1.0" standalone="no"?>
<!DOCTYPE svg PUBLIC "-//W3C//DTD SVG 20010904//EN"
 "http://www.w3.org/TR/2001/REC-SVG-20010904/DTD/svg10.dtd">
<svg version="1.0" xmlns="http://www.w3.org/2000/svg"
 width="1024.000000pt" height="1024.000000pt" viewBox="0 0 1024.000000 1024.000000"
 preserveAspectRatio="xMidYMid meet">

<g transform="translate(0.000000,1024.000000) scale(0.100000,-0.100000)"
fill="#ffff" stroke="none">
<path d="M4870 7884 c-25 -2 -101 -8 -170 -14 -493 -43 -991 -190 -1355 -400
-164 -95 -278 -176 -449 -319 -81 -68 -266 -267 -266 -287 0 -6 26 -14 59 -18
l58 -7 139 139 c312 311 665 516 1124 655 753 228 1688 190 2387 -96 359 -147
639 -333 897 -596 l99 -101 53 0 c89 0 86 10 -55 167 -198 221 -560 468 -886
604 -300 125 -653 212 -1025 254 -132 15 -520 27 -610 19z"/>
<path d="M5042 7563 c-7 -3 -19 -18 -27 -34 -29 -55 6 -109 71 -109 40 0 64
27 64 73 0 54 -56 91 -108 70z"/>
<path d="M4583 7540 c-47 -19 -57 -87 -18 -125 13 -14 33 -25 44 -25 88 0 119
105 42 145 -34 17 -37 17 -68 5z"/>
<path d="M5461 7514 c-25 -31 -27 -61 -6 -91 48 -69 166 -9 136 70 -20 53 -95
65 -130 21z"/>
<path d="M4112 7427 c-29 -31 -28 -72 3 -102 30 -30 64 -32 99 -4 18 15 26 30
26 53 0 67 -83 101 -128 53z"/>
<path d="M5920 7428 c-26 -28 -26 -82 0 -108 48 -48 139 -2 126 63 -12 63 -85
89 -126 45z"/>
<path d="M3710 7278 c-29 -32 -27 -81 6 -107 15 -12 38 -21 51 -21 32 0 73 42
73 75 0 62 -88 98 -130 53z"/>
<path d="M6346 7279 c-52 -41 -20 -129 48 -129 34 0 76 41 76 75 0 33 -41 75
-73 75 -13 0 -36 -9 -51 -21z"/>
<path d="M3320 7033 c-16 -20 -20 -36 -16 -58 17 -87 135 -85 152 2 14 72 -90
114 -136 56z"/>
<path d="M6720 7040 c-24 -24 -26 -77 -4 -108 21 -31 83 -31 112 1 28 29 28
67 1 101 -26 33 -79 36 -109 6z"/>
<path d="M3686 6650 c-115 -29 -244 -140 -303 -262 -69 -141 -95 -276 -114
-573 -16 -267 7 -626 50 -797 62 -240 200 -358 421 -358 94 0 170 19 261 66
l70 36 37 -25 c20 -14 53 -27 72 -29 l35 -3 5 410 c5 390 6 412 26 455 12 25
31 54 43 64 11 11 21 27 21 37 0 37 -33 42 -249 35 -113 -4 -216 -10 -228 -13
-39 -9 -29 -49 26 -108 32 -36 52 -69 60 -99 6 -27 11 -135 11 -269 0 -208 -1
-226 -20 -249 -42 -54 -149 -76 -198 -42 -32 22 -69 101 -84 180 -18 95 -18
853 0 975 25 173 71 265 152 307 80 41 138 14 194 -88 22 -40 29 -71 37 -162
11 -127 22 -153 73 -162 46 -9 114 19 127 51 5 13 9 149 9 302 0 257 -1 279
-18 294 -27 25 -76 21 -110 -8 l-29 -24 -79 31 c-63 24 -97 31 -169 34 -49 2
-107 -1 -129 -6z"/>
<path d="M6361 6632 l-281 -2 0 -23 c0 -13 12 -34 26 -48 36 -33 64 -96 64
-146 0 -39 -18 -133 -115 -603 -20 -96 -63 -308 -96 -470 -84 -413 -87 -421
-179 -499 -52 -44 -61 -69 -34 -91 19 -16 475 -43 489 -29 2 3 8 19 11 36 6
33 3 37 -63 89 -18 14 -35 38 -38 56 -4 17 1 92 11 166 l18 135 190 -7 c104
-3 192 -8 194 -11 3 -2 11 -57 19 -121 20 -155 11 -202 -52 -264 -50 -49 -56
-76 -22 -89 12 -5 138 -17 280 -26 266 -17 287 -15 287 21 0 8 -26 43 -58 77
-33 35 -66 83 -75 108 -9 24 -44 193 -78 374 -34 182 -70 373 -80 425 -10 52
-34 181 -54 285 -19 105 -47 250 -61 324 -34 174 -31 203 32 257 57 50 55 70
-9 75 -24 2 -171 3 -326 1z m19 -484 c0 -21 30 -185 91 -498 17 -85 33 -165
36 -177 l5 -23 -146 0 c-80 0 -146 2 -146 4 0 3 25 125 56 273 30 147 63 307
72 356 16 81 32 115 32 65z"/>
<path d="M6378 5945 c-4 -11 -25 -110 -48 -220 -22 -110 -43 -207 -46 -216 -3
-12 3 -18 23 -22 15 -3 29 -5 30 -4 0 1 16 81 34 179 28 152 31 185 23 240 -7
43 -12 57 -16 43z"/>
<path d="M643 6623 c-26 -10 -11 -47 41 -103 29 -32 57 -71 61 -87 4 -15 10
-406 14 -868 8 -879 7 -869 52 -957 40 -78 127 -141 231 -167 62 -15 238 -15
319 -1 137 25 268 119 328 238 68 134 64 88 71 947 5 578 10 790 19 820 8 25
33 60 68 93 89 87 90 87 -205 90 -254 2 -292 -2 -292 -33 0 -8 19 -27 43 -42
58 -38 95 -80 107 -122 14 -53 13 -1474 -1 -1543 -13 -60 -44 -126 -68 -146
-36 -29 -98 -52 -146 -52 -104 0 -158 58 -175 191 -14 110 -13 1489 1 1546 9
33 26 58 65 97 30 29 54 59 54 67 0 37 -18 39 -299 38 -152 0 -282 -3 -288 -6z"/>
<path d="M2027 6623 c-16 -15 -4 -41 34 -78 74 -72 69 -3 69 -933 0 -937 3
-896 -70 -967 -42 -41 -49 -65 -26 -84 18 -15 520 31 542 50 24 19 16 41 -30
83 -81 77 -81 73 -84 407 l-4 296 109 6 c205 12 292 44 390 143 120 122 169
284 160 534 -8 214 -43 322 -141 428 -46 50 -127 94 -204 111 -57 12 -734 16
-745 4z m647 -247 c77 -32 109 -130 110 -331 1 -250 -45 -351 -176 -390 -29
-8 -73 -15 -100 -15 l-48 0 1 348 c0 191 3 359 6 375 5 27 6 27 89 27 50 0 98
-6 118 -14z"/>
<path d="M2520 6010 l0 -330 25 0 25 0 2 308 3 307 70 -4 c62 -3 68 -2 57 12
-15 17 -94 37 -147 37 l-35 0 0 -330z"/>
<path d="M4410 6607 c0 -14 19 -41 50 -72 29 -29 54 -64 60 -85 6 -21 10 -319
10 -765 0 -831 5 -776 -87 -860 -44 -40 -47 -46 -37 -72 l10 -28 254 3 c140 2
267 6 282 8 49 9 44 34 -20 94 -80 74 -84 93 -80 420 l3 254 54 -3 c142 -7
163 -51 210 -443 18 -147 36 -258 45 -276 11 -21 25 -31 48 -36 45 -8 395 -9
408 -1 5 3 10 19 10 35 0 24 -10 37 -55 70 -92 68 -106 102 -160 410 -30 169
-62 246 -129 308 l-44 41 53 30 c133 75 205 244 205 479 0 183 -37 297 -126
392 -49 52 -130 94 -214 110 -29 6 -210 10 -401 10 l-349 0 0 -23z m666 -238
c30 -14 49 -33 70 -72 28 -50 29 -57 29 -187 0 -262 -62 -355 -245 -367 l-80
-6 0 325 c0 179 3 328 7 331 13 13 178 -5 219 -24z"/>
<path d="M4910 6063 c0 -275 0 -281 21 -286 12 -3 22 0 26 8 2 8 3 125 1 259
l-4 245 81 3 80 3 -38 18 c-21 10 -67 21 -103 24 l-64 6 0 -280z"/>
<path d="M7147 6623 c-16 -16 -4 -41 39 -83 89 -86 84 -22 84 -898 0 -630 -3
-779 -14 -805 -7 -18 -34 -51 -60 -74 -51 -45 -61 -84 -27 -103 43 -22 567
-54 662 -40 205 32 369 208 428 460 72 307 63 840 -20 1125 -67 231 -210 379
-399 415 -58 11 -683 14 -693 3z m668 -259 c121 -63 150 -239 142 -855 -5
-399 -12 -458 -66 -554 -48 -85 -157 -131 -265 -111 l-36 7 0 770 0 771 93 -4
c69 -2 102 -8 132 -24z"/>
<path d="M7650 5612 c0 -714 0 -730 19 -735 11 -3 22 -2 25 1 3 3 6 322 6 708
l0 703 73 3 72 3 -35 17 c-20 9 -64 20 -98 24 l-62 7 0 -731z"/>
<path d="M8437 6623 c-15 -15 -4 -36 47 -92 34 -37 60 -76 68 -103 19 -62 19
-1656 0 -1709 -7 -20 -35 -57 -62 -83 -54 -52 -69 -82 -49 -101 9 -7 122 -25
284 -44 401 -48 666 -80 702 -86 l31 -6 6 63 c3 35 10 164 15 288 10 241 8
260 -38 275 -36 11 -58 -12 -92 -99 -42 -108 -93 -184 -144 -214 -37 -21 -48
-23 -145 -18 -58 3 -122 8 -142 12 l-38 7 0 388 0 389 81 0 c76 0 83 -2 106
-27 14 -16 33 -48 42 -73 20 -54 59 -79 97 -61 l24 11 0 258 c0 187 -3 261
-12 270 -23 23 -51 11 -107 -46 -60 -63 -82 -72 -177 -72 l-54 0 0 315 0 315
116 0 c201 0 232 -18 319 -180 48 -92 51 -95 85 -95 l34 0 -1 252 c-1 139 -4
257 -8 263 -7 11 -977 15 -988 3z"/>
<path d="M1897 6512 c-76 -78 -71 -28 -77 -882 -6 -751 -6 -766 -28 -845 -34
-121 -68 -182 -141 -255 -115 -113 -227 -153 -431 -154 -91 0 -140 4 -180 17
l-55 17 25 -20 c54 -43 116 -55 270 -54 131 0 153 3 225 28 44 15 96 37 115
49 145 89 230 251 249 474 6 67 11 410 11 791 0 745 -3 712 66 783 36 37 37
56 5 76 -16 10 -24 6 -54 -25z"/>
<path d="M4280 6290 c0 -296 -4 -320 -64 -345 -20 -8 -46 -15 -59 -15 -33 0
-40 -10 -20 -32 22 -24 83 -23 133 2 50 26 63 63 56 172 -2 46 -5 167 -5 270
-1 177 -2 188 -21 198 -20 11 -20 8 -20 -250z"/>
<path d="M6735 6520 c-43 -45 -42 -80 14 -365 28 -143 93 -485 145 -761 65
-347 101 -514 116 -543 12 -24 24 -41 26 -38 3 3 -4 49 -15 104 -11 54 -43
220 -70 368 -28 149 -69 367 -91 485 -132 698 -126 641 -76 689 27 26 33 38
27 54 -13 36 -45 39 -76 7z"/>
<path d="M9490 6310 l0 -241 -30 -13 -30 -12 24 -23 c26 -24 54 -23 76 4 15
18 14 493 -1 512 -7 7 -18 13 -25 13 -12 0 -14 -43 -14 -240z"/>
<path d="M1218 6483 c-26 -31 -50 -70 -53 -87 -3 -17 -5 -375 -3 -796 3 -757
3 -765 24 -811 30 -64 42 -68 33 -11 -4 26 -8 380 -8 788 -1 829 -2 819 64
871 40 32 48 76 16 93 -11 5 -21 10 -23 9 -2 0 -24 -25 -50 -56z"/>
<path d="M5519 6359 c32 -72 44 -171 38 -299 -11 -215 -71 -354 -191 -448
l-30 -23 22 -21 21 -21 41 28 c79 55 128 134 161 263 43 170 33 362 -27 488
-32 67 -63 96 -35 33z"/>
<path d="M3120 6375 c0 -5 9 -33 19 -61 45 -116 52 -375 16 -524 -28 -116 -85
-219 -162 -291 -108 -101 -189 -133 -370 -145 l-104 -7 3 -281 c2 -207 6 -287
16 -304 7 -12 17 -20 23 -17 5 4 9 118 9 280 0 309 -7 285 86 285 81 0 200 27
279 64 150 70 240 211 280 440 28 163 17 321 -32 444 -28 69 -63 135 -63 117z"/>
<path d="M3800 6333 c-34 -24 -48 -41 -71 -93 -48 -104 -53 -165 -53 -645 -1
-475 4 -547 45 -615 27 -43 32 -34 17 31 -18 77 -18 909 0 1032 23 155 68 243
137 268 27 10 32 16 23 26 -15 18 -69 16 -98 -4z"/>
<path d="M8253 6315 c66 -137 107 -419 108 -735 0 -391 -43 -606 -156 -780
-108 -166 -252 -240 -467 -240 -104 0 -337 16 -443 30 -38 5 -71 8 -72 6 -2
-2 5 -13 14 -25 17 -20 35 -24 183 -38 222 -20 459 -22 530 -4 256 63 394 272
446 679 23 181 15 587 -15 755 -26 148 -46 217 -81 287 -32 62 -73 120 -47 65z"/>
<path d="M8940 6062 c0 -159 4 -272 9 -272 5 0 16 -3 25 -6 14 -6 16 20 16
245 l0 250 118 3 c117 3 117 3 85 20 -21 12 -66 20 -142 24 l-111 7 0 -271z"/>
<path d="M9290 5562 c0 -253 -2 -268 -48 -274 l-24 -3 22 -27 c24 -32 46 -35
78 -12 22 15 22 18 22 269 0 217 -2 256 -16 269 -8 9 -20 16 -25 16 -5 0 -9
-98 -9 -238z"/>
<path d="M4336 5595 c-56 -73 -56 -73 -57 -497 -1 -216 -4 -404 -8 -418 -6
-21 -14 -26 -55 -30 l-47 -5 21 -22 c23 -25 85 -31 121 -13 18 10 19 26 19
426 0 455 -2 434 62 516 24 31 27 41 18 58 -16 30 -44 24 -74 -15z"/>
<path d="M4910 5195 c0 -212 3 -261 16 -295 15 -38 27 -45 30 -17 0 7 2 128 2
270 l2 257 25 0 c35 0 31 16 -6 29 -73 25 -69 40 -69 -244z"/>
<path d="M5430 5444 c0 -6 7 -30 15 -55 8 -24 28 -123 45 -219 29 -162 70
-294 86 -277 4 3 -1 37 -10 74 -9 37 -27 130 -41 205 -14 75 -34 161 -45 191
-20 54 -49 101 -50 81z"/>
<path d="M8940 5097 l0 -340 23 -19 22 -20 3 336 2 336 48 0 47 1 -28 24 c-22
20 -38 25 -73 23 l-44 -1 0 -340z"/>
<path d="M6209 5040 c-16 -120 -15 -148 4 -167 12 -12 16 2 31 89 10 57 20
111 22 121 5 15 20 17 145 17 76 0 139 4 139 9 0 22 -36 29 -176 33 l-152 3
-13 -105z"/>
<path d="M9535 4768 c-10 -244 -21 -394 -30 -408 -5 -9 -26 -11 -69 -7 -88 8
-800 95 -870 107 -33 5 -61 8 -63 6 -8 -8 10 -36 26 -41 20 -6 241 -35 541
-70 118 -14 266 -32 328 -41 62 -8 121 -12 132 -9 30 10 38 59 49 340 10 241
10 261 -6 273 -9 6 -20 12 -24 12 -3 0 -10 -73 -14 -162z"/>
<path d="M5013 4707 c-10 -22 -19 -24 -119 -30 -59 -4 -179 -7 -267 -7 -159 0
-160 0 -142 -20 17 -19 31 -20 282 -20 250 0 264 1 283 20 24 24 26 65 4 74
-25 10 -30 7 -41 -17z"/>
<path d="M5669 4707 c-17 -22 -21 -22 -215 -20 -194 2 -198 2 -177 -16 24 -20
112 -30 273 -32 146 -1 149 0 170 21 17 17 18 24 8 45 -14 31 -38 32 -59 2z"/>
<path d="M6290 4710 c0 -11 -11 -27 -25 -36 -22 -14 -46 -15 -237 -5 -116 6
-214 9 -216 6 -2 -2 5 -12 16 -23 17 -17 40 -20 193 -26 96 -4 195 -9 221 -13
41 -5 50 -2 72 20 31 31 34 72 7 87 -27 14 -31 13 -31 -10z"/>
<path d="M4025 4674 c-108 -65 -303 -85 -423 -44 -45 15 -53 16 -37 4 97 -77
324 -91 457 -30 78 36 92 50 78 75 -13 26 -25 25 -75 -5z"/>
<path d="M6570 4643 c1 -37 51 -46 349 -63 178 -10 195 -10 212 6 25 22 24 41
-2 55 -18 9 -24 8 -31 -5 -7 -12 -24 -16 -71 -16 -58 0 -239 12 -394 25 -35 3
-63 2 -63 -2z"/>
<path d="M2636 4595 c-3 -13 -15 -29 -25 -35 -14 -7 -447 -58 -510 -60 -2 0 4
-9 15 -21 21 -24 32 -23 353 12 181 19 221 32 221 70 0 52 -43 80 -54 34z"/>
<path d="M7116 4267 c-27 -20 -16 -50 21 -60 19 -6 34 -18 37 -31 10 -37 7
-206 -4 -206 -5 0 -10 4 -10 9 0 16 -64 35 -115 35 -87 -2 -158 -55 -204 -154
-34 -74 -42 -231 -16 -325 44 -162 194 -223 321 -130 l30 23 11 -29 11 -29
105 0 c97 0 106 2 112 20 8 27 0 37 -35 45 -23 5 -32 14 -40 43 -6 22 -10 190
-10 420 l0 382 -98 0 c-65 0 -104 -4 -116 -13z m6 -358 c41 -22 58 -84 58
-216 0 -67 -5 -134 -11 -150 -18 -49 -48 -73 -91 -73 -48 0 -82 30 -97 86 -16
57 -13 212 4 272 23 77 80 111 137 81z"/>
<path d="M2435 4258 c-33 -18 -45 -40 -45 -83 0 -64 52 -104 109 -84 65 23 81
100 32 150 -31 30 -62 36 -96 17z"/>
<path d="M7581 4244 c-25 -20 -31 -34 -31 -64 0 -71 56 -111 119 -84 43 18 65
66 51 110 -22 66 -85 83 -139 38z"/>
<path d="M5861 4201 c-6 -10 -20 -42 -31 -71 -29 -73 -56 -108 -97 -125 -29
-12 -34 -19 -31 -41 2 -20 11 -29 38 -38 l35 -11 5 -235 c6 -268 8 -276 86
-306 76 -29 154 -4 191 61 29 51 32 125 5 125 -11 0 -25 -14 -35 -35 -18 -38
-58 -55 -82 -35 -12 10 -15 48 -15 220 l0 207 63 -1 62 -1 3 47 3 47 -68 3
-68 3 4 88 c3 92 -5 117 -40 117 -10 0 -23 -8 -28 -19z"/>
<path d="M1987 4006 c-100 -27 -170 -114 -192 -240 -38 -219 57 -385 230 -403
91 -9 166 30 206 109 27 54 22 92 -12 96 -21 2 -31 -4 -49 -33 -60 -96 -181
-80 -211 28 -18 63 -14 224 6 275 17 43 56 82 81 82 8 0 23 -9 35 -21 17 -17
20 -28 14 -67 -5 -39 -3 -51 15 -69 41 -44 121 -16 135 47 20 89 -42 179 -136
199 -60 13 -61 13 -122 -3z"/>
<path d="M3457 4010 c-173 -44 -255 -251 -187 -478 58 -192 343 -232 431 -61
43 85 -3 152 -51 75 -35 -58 -73 -79 -128 -73 -35 4 -52 12 -69 33 -31 40 -46
123 -41 224 8 122 41 190 93 190 31 0 45 -26 45 -82 0 -49 6 -60 37 -77 29
-15 65 -5 95 26 52 56 14 175 -69 209 -45 19 -110 25 -156 14z"/>
<path d="M4585 4005 c-97 -37 -149 -140 -115 -230 15 -39 91 -107 161 -144 91
-48 109 -67 109 -113 0 -35 -4 -41 -33 -53 -71 -30 -144 13 -168 98 -10 36
-12 38 -47 35 l-37 -3 -3 -97 c-3 -110 6 -139 40 -130 13 3 28 12 34 20 9 12
15 12 43 -3 18 -9 57 -19 87 -22 136 -14 239 92 219 226 -6 37 -16 54 -54 91
-26 25 -74 59 -106 75 -73 37 -125 81 -125 106 0 47 67 73 123 48 24 -11 32
-22 56 -82 9 -24 16 -28 44 -25 l32 3 -2 89 c-1 99 -9 115 -48 98 -21 -10 -32
-9 -55 3 -44 23 -109 27 -155 10z"/>
<path d="M5350 4009 c-82 -25 -132 -89 -132 -170 1 -85 41 -132 174 -205 79
-44 108 -74 108 -115 0 -35 -32 -59 -78 -59 -64 0 -102 35 -127 118 -5 17 -14
22 -41 22 l-34 0 0 -115 0 -115 28 0 c15 0 33 5 39 11 7 7 26 6 64 -5 85 -26
148 -18 212 26 58 41 86 139 60 214 -18 53 -65 95 -158 143 -108 57 -140 105
-97 144 22 20 80 22 104 3 10 -7 26 -34 38 -60 18 -44 22 -47 52 -44 l33 3 -1
92 c0 51 -4 96 -7 100 -4 3 -18 1 -32 -5 -21 -10 -32 -9 -55 3 -40 20 -107 27
-150 14z"/>
<path d="M2435 4001 c-82 -7 -95 -14 -95 -47 0 -17 6 -24 19 -24 11 0 27 -7
35 -16 14 -14 16 -46 14 -237 l-3 -222 -33 -15 c-25 -12 -32 -20 -30 -40 l3
-25 143 -3 142 -3 0 31 c0 22 -5 30 -18 30 -11 0 -26 8 -35 18 -15 16 -17 51
-17 280 0 248 -1 262 -19 272 -11 5 -23 9 -28 8 -4 -1 -39 -4 -78 -7z"/>
<path d="M2835 4004 c-122 -16 -115 -13 -115 -45 0 -21 5 -29 18 -29 39 0 42
-16 42 -244 0 -122 -4 -226 -8 -232 -4 -7 -18 -14 -32 -15 -20 -3 -26 -11 -28
-36 l-3 -33 146 0 146 0 -3 28 c-2 20 -9 28 -28 31 -14 1 -28 8 -32 15 -4 6
-8 90 -8 186 0 152 3 181 20 218 22 48 62 71 87 50 11 -9 13 -23 8 -54 -5 -35
-2 -47 14 -63 38 -38 99 -23 126 29 33 64 6 156 -55 187 -58 30 -168 3 -188
-45 -5 -13 -8 -8 -12 18 -4 31 -9 35 -35 36 -16 1 -43 0 -60 -2z"/>
<path d="M3830 4001 c-53 -6 -55 -7 -55 -36 0 -22 5 -31 20 -33 42 -8 45 -18
46 -176 0 -83 4 -188 8 -234 7 -71 12 -87 36 -112 57 -60 144 -63 229 -10 26
17 49 30 51 30 3 0 5 -11 5 -25 0 -32 20 -37 130 -33 82 3 85 4 88 28 2 20 -5
28 -30 40 l-33 15 -3 272 -2 273 -23 5 c-12 4 -63 2 -112 -2 l-90 -8 0 -30 c0
-23 5 -30 25 -35 42 -10 50 -42 50 -200 0 -199 -14 -241 -87 -256 -26 -5 -37
-1 -57 19 l-26 26 0 226 c0 137 -4 234 -10 246 -11 20 -43 22 -160 10z"/>
<path d="M6190 4004 c-64 -11 -70 -14 -70 -39 0 -18 7 -26 25 -31 14 -3 30
-14 35 -24 6 -10 10 -105 10 -211 0 -118 5 -207 12 -231 33 -112 186 -142 283
-57 l35 31 0 -25 c0 -41 20 -48 121 -45 l94 3 3 28 c3 23 0 27 -20 27 -47 0
-48 8 -48 291 0 226 -2 268 -15 279 -11 9 -38 11 -101 6 -104 -9 -114 -12
-114 -40 0 -16 11 -27 35 -39 l35 -17 0 -180 c0 -142 -3 -187 -15 -210 -27
-52 -83 -66 -126 -31 -24 19 -24 21 -29 268 l-5 248 -60 1 c-33 1 -71 0 -85
-2z"/>
<path d="M7595 4005 c-5 -2 -31 -6 -57 -10 -44 -6 -48 -8 -48 -35 0 -22 6 -29
27 -35 15 -3 31 -12 35 -18 4 -7 8 -109 8 -228 0 -227 -1 -232 -45 -241 -14
-2 -21 -12 -23 -36 l-3 -33 143 3 143 3 3 28 c3 23 0 27 -20 27 -47 0 -48 9
-48 276 0 140 -4 264 -10 278 -8 23 -15 26 -52 25 -24 0 -47 -2 -53 -4z"/>
<path d="M8009 3983 c-106 -55 -154 -158 -147 -317 6 -139 55 -227 153 -279
58 -30 174 -30 232 1 155 82 194 392 68 539 -74 87 -199 110 -306 56z m174
-91 c36 -38 50 -113 45 -236 -5 -106 -29 -176 -63 -190 -24 -9 -64 -7 -84 4
-47 25 -76 215 -51 334 22 106 95 149 153 88z"/>
<path d="M1217 3786 c-81 -22 -148 -82 -183 -166 -9 -20 -15 -66 -15 -109 0
-60 5 -84 27 -130 68 -139 254 -262 507 -335 267 -78 541 -92 1156 -60 346 18
620 14 738 -10 167 -34 300 -101 350 -177 31 -48 42 -136 23 -193 -24 -74
-136 -120 -196 -81 -28 18 -28 17 -8 120 12 63 -64 108 -128 77 -111 -56 -70
-221 71 -285 56 -25 153 -29 226 -8 68 20 149 99 165 161 18 66 8 160 -23 212
-84 144 -272 234 -562 269 -112 13 -489 12 -782 -2 -296 -14 -662 -7 -788 15
-386 67 -617 218 -633 413 -9 104 50 193 127 193 61 0 85 -41 61 -104 -11 -30
2 -72 28 -92 30 -24 81 -17 112 15 38 37 45 71 31 135 -27 120 -158 181 -304
142z"/>
<path d="M8839 3786 c-63 -17 -104 -48 -128 -99 -34 -70 -24 -134 28 -182 28
-24 83 -25 110 -1 30 27 34 62 12 111 -19 43 -19 44 0 61 24 22 110 15 140
-12 33 -30 59 -90 59 -137 0 -79 -27 -136 -99 -208 -132 -130 -364 -215 -683
-249 -124 -13 -487 -13 -643 0 -159 14 -655 14 -774 0 -288 -33 -466 -110
-557 -243 -62 -90 -70 -197 -21 -280 33 -56 62 -82 122 -108 158 -70 343 3
375 148 19 82 -20 143 -93 143 -32 0 -49 -6 -64 -22 -30 -34 -32 -48 -11 -95
14 -33 16 -47 8 -63 -35 -65 -168 -46 -214 31 -10 16 -20 54 -23 84 -14 133
95 237 305 290 167 43 527 58 807 35 205 -18 652 -24 785 -11 652 63 1035 353
880 667 -35 71 -77 107 -155 135 -62 22 -101 23 -166 5z"/>
</g>
</svg>
