<?xml version="1.0" standalone="no"?>
<!DOCTYPE svg PUBLIC "-//W3C//DTD SVG 20010904//EN"
 "http://www.w3.org/TR/2001/REC-SVG-20010904/DTD/svg10.dtd">
<svg version="1.0" xmlns="http://www.w3.org/2000/svg"
 width="500.000000pt" height="500.000000pt" viewBox="0 0 500.000000 500.000000"
 preserveAspectRatio="xMidYMid meet">
 

<g transform="translate(0.000000,500.000000) scale(0.100000,-0.100000)"
fill="white" stroke="none">
<path d="M1899 2505 c-63 -20 -131 -83 -158 -146 -60 -139 2 -322 133 -392 34
-18 57 -22 136 -22 80 0 102 4 138 23 41 22 42 22 42 2 0 -17 6 -20 50 -20 48
0 50 1 50 29 0 16 -3 43 -6 60 l-6 31 -79 0 c-71 0 -79 -2 -79 -19 0 -16 -10
-21 -56 -27 -102 -12 -169 24 -167 92 3 98 141 112 175 18 11 -31 16 -35 38
-31 14 3 53 9 88 13 35 4 70 13 78 21 9 9 14 35 14 72 0 176 -108 297 -273
307 -47 2 -88 -1 -118 -11z"/>
<path d="M700 2321 c0 -223 11 -271 71 -326 48 -43 105 -58 199 -53 95 6 151
34 187 95 29 50 42 159 43 351 l0 122 -68 0 -68 0 -11 -72 c-14 -90 -40 -118
-108 -118 -74 0 -114 55 -115 158 l0 32 -65 0 -65 0 0 -189z"/>
<path d="M1240 2397 c0 -63 3 -189 7 -280 l6 -167 49 0 48 0 0 44 0 43 99 5
c74 4 107 10 132 24 124 73 142 293 32 396 -44 42 -74 48 -229 48 l-144 0 0
-113z m288 -235 c6 -41 -14 -52 -94 -52 l-74 0 0 40 0 41 83 -3 c77 -3 82 -4
85 -26z"/>
<path d="M2330 2230 l0 -280 55 0 55 0 0 45 0 45 53 0 c52 0 52 0 76 -45 23
-44 25 -45 74 -45 l49 0 -16 25 c-51 80 -50 71 -16 85 61 25 110 120 110 214
0 104 -38 177 -110 214 -40 20 -59 22 -187 22 l-143 0 0 -280z m278 -52 c16
-16 15 -33 -4 -52 -11 -12 -36 -16 -90 -16 l-74 0 0 40 0 40 78 0 c47 0 83 -5
90 -12z"/>
<path d="M2960 2478 c-6 -18 -47 -136 -90 -263 -43 -126 -81 -238 -85 -247 -6
-16 0 -18 53 -18 52 0 62 3 67 20 6 18 15 20 83 20 66 0 79 -3 90 -20 11 -18
23 -20 143 -20 104 0 130 3 127 13 -2 8 -46 134 -98 280 l-95 267 -92 0 -91 0
-12 -32z m55 -399 l16 -29 -41 0 c-45 0 -46 0 -25 41 18 33 28 31 50 -12z"/>
<path d="M3370 2230 l0 -282 153 4 c143 3 155 5 209 31 64 31 112 88 129 152
15 54 7 192 -14 231 -24 47 -76 94 -127 118 -38 17 -69 21 -197 24 l-153 4 0
-282z m274 -61 c20 -16 26 -29 26 -58 0 -57 -26 -75 -116 -79 l-74 -4 0 81 0
81 69 0 c54 0 74 -4 95 -21z"/>
<path d="M3910 2397 c0 -63 3 -189 7 -280 l6 -167 189 0 188 0 0 40 0 40 -141
0 c-140 0 -140 0 -137 23 3 21 7 22 121 25 l117 3 0 29 0 30 -115 0 -115 0 0
25 0 25 140 0 140 0 0 160 0 160 -200 0 -200 0 0 -113z"/>
<path d="M1197 1682 c-40 -44 -4 -154 41 -126 9 6 19 20 21 30 3 18 2 18 -16
2 -25 -23 -43 -7 -43 38 0 37 20 60 38 42 6 -6 15 -8 19 -4 7 7 -23 36 -37 36
-4 0 -14 -8 -23 -18z"/>
<path d="M1415 1625 c0 -71 1 -75 23 -75 12 0 22 5 22 10 0 6 -4 10 -10 10
-13 0 -13 97 0 105 14 9 2 25 -18 25 -14 0 -17 -11 -17 -75z"/>
<path d="M1600 1625 c0 -43 4 -75 10 -75 6 0 10 10 10 23 1 20 2 21 14 5 19
-25 25 -22 24 10 0 15 3 37 7 49 8 23 -23 63 -50 63 -12 0 -15 -15 -15 -75z
m50 20 c0 -7 -7 -18 -15 -25 -13 -11 -15 -7 -15 25 0 32 2 36 15 25 8 -7 15
-18 15 -25z"/>
<path d="M1843 1694 c-7 -3 -17 -21 -23 -40 -14 -42 1 -90 32 -99 21 -7 48 10
48 31 0 19 -10 18 -26 -3 -18 -26 -38 -3 -37 43 1 40 20 59 40 42 20 -16 26
-3 8 16 -17 17 -22 18 -42 10z"/>
<path d="M2050 1645 c0 -88 30 -122 64 -73 18 25 22 128 6 128 -5 0 -10 -21
-10 -46 0 -49 -15 -88 -31 -79 -5 4 -9 30 -9 60 0 30 -4 57 -10 60 -6 4 -10
-15 -10 -50z"/>
<path d="M2292 1688 c-18 -18 -15 -46 8 -78 20 -28 18 -42 -6 -33 -8 3 -14 0
-14 -6 0 -21 32 -25 46 -6 12 16 11 23 -7 52 -12 20 -18 41 -14 51 6 16 7 16
21 -2 17 -23 33 -12 18 12 -14 22 -36 26 -52 10z"/>
<path d="M2676 1684 c-21 -21 -20 -36 4 -67 27 -34 26 -50 -2 -42 -21 7 -22 6
-7 -9 20 -21 49 -11 49 17 0 11 -10 31 -21 43 -12 13 -19 30 -16 38 8 20 27
21 27 1 0 -8 5 -15 10 -15 16 0 11 37 -6 44 -21 8 -20 8 -38 -10z"/>
<path d="M2870 1690 c0 -5 5 -10 10 -10 6 0 10 -28 10 -65 0 -37 4 -65 10 -65
6 0 10 28 10 65 0 52 3 65 16 65 8 0 12 5 9 10 -3 6 -19 10 -36 10 -16 0 -29
-4 -29 -10z"/>
<path d="M3080 1645 c0 -88 30 -122 64 -73 18 25 22 128 6 128 -5 0 -10 -21
-10 -46 0 -49 -15 -88 -31 -79 -5 4 -9 30 -9 60 0 30 -4 57 -10 60 -6 4 -10
-15 -10 -50z"/>
<path d="M3310 1625 c0 -82 10 -93 48 -52 32 35 37 69 12 100 -12 15 -30 27
-41 27 -17 0 -19 -8 -19 -75z m48 -15 c-15 -46 -28 -36 -28 23 l1 52 19 -23
c15 -19 17 -28 8 -52z"/>
<path d="M3540 1698 c-1 -2 -2 -36 -3 -76 -2 -69 -1 -72 21 -72 24 0 28 10 11
27 -12 12 -8 74 5 106 6 13 3 17 -13 17 -12 0 -21 -1 -21 -2z"/>
<path d="M3745 1676 c-29 -29 -33 -71 -9 -104 18 -26 45 -28 66 -4 35 39 30
100 -12 122 -17 9 -24 7 -45 -14z m56 -32 c8 -23 -8 -65 -28 -71 -18 -6 -37
41 -29 72 8 32 45 31 57 -1z"/>
</g>
</svg>
